<svg xmlns="http://www.w3.org/2000/svg" viewBox="0 0 320 580" fill="none">
  <!-- Phone frame -->
  <rect width="320" height="580" rx="36" fill="#f5edd8"/>
  <!-- Status bar -->
  <rect x="0" y="0" width="320" height="48" rx="36" fill="#1b261f"/>
  <rect x="120" y="16" width="80" height="16" rx="8" fill="rgba(255,255,255,0.3)"/>
  <!-- App header -->
  <rect x="0" y="48" width="320" height="64" fill="#1b261f"/>
  <circle cx="32" cy="80" r="16" fill="#79d7b9"/>
  <rect x="60" y="68" width="100" height="10" rx="5" fill="rgba(255,255,255,0.7)"/>
  <rect x="60" y="82" width="60" height="6" rx="3" fill="rgba(255,255,255,0.3)"/>
  <!-- Camera icon -->
  <circle cx="288" cy="80" r="16" fill="rgba(255,255,255,0.15)"/>
  <circle cx="288" cy="80" r="8" fill="rgba(255,255,255,0.25)"/>
  <!-- Hero image area -->
  <rect x="16" y="124" width="288" height="200" rx="20" fill="#eef7ef"/>
  <text x="160" y="224" text-anchor="middle" font-size="16" font-weight="600" fill="#617062" font-family="system-ui">jÑËm</text>
  <text x="160" y="248" text-anchor="middle" font-size="12" fill="#8a9588" font-family="system-ui">3 ÍßP · 15 Ÿ</text>
  <!-- Feature cards -->
  <rect x="16" y="340" width="134" height="100" rx="16" fill="#1b261f"/>
  <rect x="16" y="456" width="134" height="100" rx="16" fill="#ff7a59" opacity="0.15"/>
  <rect x="170" y="340" width="134" height="100" rx="16" fill="#79d7b9" opacity="0.2"/>
  <rect x="170" y="456" width="134" height="100" rx="16" fill="#ffc574" opacity="0.2"/>
  <!-- Bottom nav -->
  <rect x="0" y="530" width="320" height="50" rx="0" fill="#1b261f"/>
  <rect x="0" y="530" width="80" height="50" fill="rgba(121,215,185,0.2)"/>
  <rect x="100" y="548" width="20" height="20" rx="4" fill="rgba(255,255,255,0.5)"/>
  <rect x="200" y="548" width="20" height="20" rx="4" fill="rgba(255,255,255,0.3)"/>
</svg>
