<svg width="200" height="200" viewBox="0 0 200 200" fill="none" xmlns="http://www.w3.org/2000/svg">
  <rect width="200" height="200" fill="white"/>
  <!-- QR Code Pattern (placeholder) -->
  <rect x="20" y="20" width="60" height="60" fill="#26251e"/>
  <rect x="30" y="30" width="40" height="40" fill="white"/>
  <rect x="40" y="40" width="20" height="20" fill="#26251e"/>
  
  <rect x="120" y="20" width="60" height="60" fill="#26251e"/>
  <rect x="130" y="30" width="40" height="40" fill="white"/>
  <rect x="140" y="40" width="20" height="20" fill="#26251e"/>
  
  <rect x="20" y="120" width="60" height="60" fill="#26251e"/>
  <rect x="30" y="130" width="40" height="40" fill="white"/>
  <rect x="40" y="140" width="20" height="20" fill="#26251e"/>
  
  <!-- Center pattern -->
  <rect x="100" y="100" width="20" height="20" fill="#26251e"/>
  <rect x="120" y="100" width="10" height="10" fill="#26251e"/>
  <rect x="100" y="120" width="10" height="10" fill="#26251e"/>
  <rect x="140" y="120" width="10" height="10" fill="#26251e"/>
  <rect x="100" y="140" width="10" height="10" fill="#26251e"/>
  <rect x="120" y="140" width="20" height="20" fill="#26251e"/>
  <rect x="160" y="140" width="10" height="10" fill="#26251e"/>
  <rect x="140" y="160" width="10" height="10" fill="#26251e"/>
  <rect x="160" y="160" width="10" height="10" fill="#26251e"/>
  <rect x="180" y="100" width="10" height="10" fill="#26251e"/>
  <rect x="160" y="120" width="10" height="10" fill="#26251e"/>
  <rect x="180" y="140" width="10" height="10" fill="#26251e"/>
  <rect x="120" y="160" width="10" height="10" fill="#26251e"/>
  <rect x="100" y="180" width="10" height="10" fill="#26251e"/>
  <rect x="140" y="180" width="10" height="10" fill="#26251e"/>
  <rect x="180" y="180" width="10" height="10" fill="#26251e"/>
  
  <!-- Logo in center -->
  <circle cx="150" cy="150" r="20" fill="#f54e00"/>
  <text x="150" y="156" text-anchor="middle" fill="white" font-size="16" font-family="Arial">A</text>
</svg>
